<?xml version="1.0" encoding="UTF-8" standalone="no"?>
<svg
   xmlns:dc="http://purl.org/dc/elements/1.1/"
   xmlns:cc="http://creativecommons.org/ns#"
   xmlns:rdf="http://www.w3.org/1999/02/22-rdf-syntax-ns#"
   xmlns:svg="http://www.w3.org/2000/svg"
   xmlns="http://www.w3.org/2000/svg"
   width="139.28571"
   height="139.28571"
   viewBox="0 0 139.28571 139.28571"
   id="svg2"
   version="1.1">
  <defs
     id="defs4" />
  <metadata
     id="metadata7">
    <rdf:RDF>
      <cc:Work
         rdf:about="">
        <dc:format>image/svg+xml</dc:format>
        <dc:type
           rdf:resource="http://purl.org/dc/dcmitype/StillImage" />
        <dc:title></dc:title>
      </cc:Work>
    </rdf:RDF>
  </metadata>
  <g
     id="layer1"
     transform="translate(-128.26582,-403.90194)">
    <circle
       style="opacity:1;fill:#d81e00;fill-opacity:1;stroke:none;stroke-width:3;stroke-linecap:butt;stroke-miterlimit:4;stroke-dasharray:none;stroke-opacity:1"
       id="path4832"
       cx="197.90868"
       cy="473.5448"
       r="69.64286" />
    <path
       style="opacity:1;fill:#eeeeee;fill-opacity:1;stroke:none;stroke-width:3;stroke-linecap:butt;stroke-miterlimit:4;stroke-dasharray:none;stroke-opacity:1"
       d="m 198.14888,421.19899 a 5.7868657,5.8918133 0 0 0 -5.78711,5.89258 5.7868657,5.8918133 0 0 0 0.13477,1.22851 28.013628,29.459066 0 0 0 -22.3125,27.79688 l -0.0488,0 0,1.02344 0,21.83789 c -1.3308,4.03768 -4.59829,9.54147 -12.60938,13.37304 a 6.5759845,6.5612745 0 0 0 -5.26953,6.42383 6.5759845,6.5612745 0 0 0 5.38477,6.44727 l 0,0.0352 0.23632,0 a 6.5759845,6.5612745 0 0 0 0.95508,0.0781 6.5759845,6.5612745 0 0 0 0.97656,-0.0781 l 76.22071,0 a 6.5759845,6.5612745 0 0 0 0.95703,0.0781 6.5759845,6.5612745 0 0 0 0.97461,-0.0781 l 0.37109,0 0,-0.0684 a 6.5759845,6.5612745 0 0 0 5.22852,-6.41406 6.5759845,6.5612745 0 0 0 -5.04688,-6.375 c -7.45763,-3.5359 -10.82309,-8.5138 -12.35156,-12.44922 l 0,-22.81054 0,-1.02344 -0.0352,0 a 28.013628,29.459066 0 0 0 -22.31441,-27.82423 5.7868657,5.8918133 0 0 0 0.12305,-1.20117 5.7868657,5.8918133 0 0 0 -5.78711,-5.89258 z"
       id="path4187" />
    <path
       style="opacity:1;fill:#eeeeee;fill-opacity:1;stroke:none;stroke-width:3;stroke-linecap:butt;stroke-miterlimit:4;stroke-dasharray:none;stroke-opacity:1"
       d="m 185.14253,507.82774 a 12.807406,12.470825 0 0 0 12.7717,11.55822 12.807406,12.470825 0 0 0 12.76059,-11.55822 l -25.53229,0 z"
       id="path4212" />
    <text
       xml:space="preserve"
       style="font-style:normal;font-weight:normal;font-size:18.75px;line-height:125%;font-family:sans-serif;letter-spacing:0px;word-spacing:0px;fill:#000000;fill-opacity:1;stroke:none;stroke-width:1px;stroke-linecap:butt;stroke-linejoin:miter;stroke-opacity:1"
       x="658.75964"
       y="467.70474"
       id="text4799"><tspan
         id="tspan4801"
         x="658.75964"
         y="467.70474" /><tspan
         x="658.75964"
         y="491.14224"
         id="tspan4803" /></text>
  </g>
</svg>
